<?xml version="1.0" encoding="UTF-8"?>
<svg version="1.1" viewBox="0 0 400 400" xmlns="http://www.w3.org/2000/svg">
<rect y=".36831" width="399.98" height="399.98" fill="#fff"/>
<path d="m128 223c1.2463 8.1333 4.2541 16.087 8.7428 23 3.0991 4.773 8.5272 9.0375 9.069 15 0.89708 9.8727-1.4614 22.555-4.291 32-1.4946 4.9887-6.1066 10.692-5.3962 16 1.6038 11.983 15.988 22.792 25.875 27.739 27.934 13.975 70.941 11.372 92.761-12.758 3.576-3.9545 9.0022-10.305 9.0418-15.981 0.0327-4.6899-4.1886-9.5108-5.5496-14-3.3459-11.036-6.0117-28.752-2.5758-40 1.5521-5.0812 5.6533-9.2263 7.955-14 2.4311-5.0419 3.3345-11.198 6.3895-15.864 2.6442-4.0382 6.6984-6.638 8.7741-11.139 5.653-12.258 2.8618-25.179 4.462-37.997 2.4004-19.229 10.316-35.972 7.2604-56-0.99765-6.539-4.5415-11.022-6.787-17-2.2945-6.1079-2.533-11.743-7.0491-16.957-10.397-12.005-29.813-16.358-43.683-23.293-14.224-7.112-32.467-17.755-49-15.268-9.1621 1.378-12.648 7.3506-20.217 11.223-8.7509 4.4766-18.055 0.44012-26.763 7.7151-10.837 9.0538-11.569 22.042-15.703 34.58-4.1574 12.606-12.481 23.809-14.792 37-2.241 12.788 1.4907 23.871 4.6165 36 3.6567 14.189-2.8205 45.596 16.86 50m149-42h-1c3e-3 -23.894 0.79883-42.809-6-66-22.096 4.6945-43.498-0.33884-63-11.452-7.8462-4.4711-16.259-14.188-25-16.117-6.7669-1.4937-15.627 1.5146-22 3.6855-43.534 14.83-38.055 56.938-38 93.884h-1c-9.3018-16.333-15.726-35.301-9.7198-54 3.127-9.7349 9.2691-18.295 12.605-28 3.127-9.097 3.5756-19.749 8.763-27.997 10.697-17.01 32.51-14.917 48.352-7.0026l1-3-14-5c5.9736-10.062 17.278-11.798 28-9.7146 18.623 3.6184 34.713 14.959 52 22.102 8.7882 3.6311 18.94 6.6546 25.58 13.852 4.9149 5.3276 3.9215 10.507 6.198 16.683 2.0196 5.4799 6.1614 9.0396 7.3842 15.078 4.4197 21.825-4.2144 42.539-10.162 63m-101-90.658c10.314-1.1984 17.892 8.3131 26 13.398 12.772 8.0098 27.958 14.254 43 16.053 5.8801 0.70337 20.794-2.8052 24.173 2.4981 7.78 12.212 4.5917 32.162 3.9051 45.708-1.2019 23.712-1.7492 51.719-13.562 73-4.9951 8.9984-12.459 15.559-19.379 23-9.1284 9.8145-17.028 19.869-31.136 21.66-25.256 3.2078-37.359-6.0486-54.078-23.66-8.2493-8.6897-16.397-16.595-20.823-28-7.5071-19.347-7.8148-39.673-9.2358-60-2.1273-30.432-1.3021-66.117 32.136-78.895 5.978-2.2845 12.636-4.0227 19-4.7621m-47 66.658c7.9161-0.9203 15.166-4.7528 23-6.295 7.9796-1.5708 15.969-1.1694 24-1.8497 3.5272-0.29879 11.054-1.6372 9.8943-6.7998-1.5287-6.8046-12.789-6.0512-17.894-6.0554-16.421-0.01358-33.174 3.3822-39 21m139 0c-4.3671-17.956-23.398-21.013-39-21-5.0944 4e-3 -16.242-0.78018-17.695 6.0554-1.0997 5.1738 6.1009 6.4951 9.6954 6.7998 8.7064 0.73797 17.375 0.31401 26 2.1876 7.1575 1.5549 13.701 5.1085 21 5.9571m-85-16c-2.3519 5.2696-7.8403 4.9643-13 4.9976-12.326 0.0796-23.16 3.0871-35 6.0024 10.991-14.57 31.499-15.126 48-11m79 11c-11.855-2.919-22.669-5.8581-35-6.0074-5.0518-0.0612-10.687 0.12598-13-4.9926 16.806-3.5706 36.759-3.9801 48 11m-119 16 14-7c-2.2884 11.191 12.315 11.381 10 0l10 4c-5.4081-13.34-29.358-8.7033-34 3m77-3 10-4c-2.2637 11.07 10.425 11.259 11 0l13 7c-4.5162-11.823-28.603-16.311-34-3m-104 17c7.1045 12.205 8.3202 24.339 11 38-10.16-5.9016-13.791-27.209-11-38m160 0-1 1 1-1m4 0c-6e-5 11.756 0.55835 27.568-9 36 0.71625-11.873 2.1277-26.001 9-36m-101 22 19 4.742 21-4.742c-6.1503-7.4467-13.937 1.4178-21 1.3346-6.5149-0.0768-13.454-8.0337-19-1.3346m-10 29c4.0843 5.3898 10.785 4.9942 17 4.9998 13.808 0.0125 28.933 1.9997 42-2.9998v-2l-1-1c-19.382 5.6046-38.442 1.7066-58 1m83 24c0 11.7-0.41498 23.56 2.5158 35 1.6179 6.3151 7.3188 13.533 4.547 20-17.632 41.137-95.781 38.763-116.74 3-4.8235-8.2302 0.22184-13.864 2.4853-22 2.8992-10.421 3.9873-22.207 4.1927-33 8.4351 7.6558 15.294 17.805 25.001 23.938 12.331 7.7908 36.708 7.9784 48.999-0.0186 11.032-7.1775 17.53-20.694 29-26.919m-55 12v8h3v-8h-3" fill="#111"/>
<path d="m120.41 183.66c-1.3456-2.3078-4.7777-9.4807-6.0174-12.576-5.7632-14.389-6.8288-27.48-3.1935-39.234 1.184-3.8284 2.5854-7.0471 6.309-14.49 6.2626-12.518 6.707-13.74 9.7067-26.682 1.4581-6.2908 2.6384-9.9552 4.1977-13.033 5.8717-11.588 17.168-16.954 31.7-15.057 5.0351 0.65721 10.932 2.3598 15.529 4.4835 1.1601 0.53598 2.1933 0.9745 2.296 0.9745 0.21805 0 1.2525-2.9481 1.0911-3.1095-0.0599-0.05992-3.1443-1.1941-6.8541-2.5203-3.7098-1.3263-6.7872-2.4535-6.8387-2.5049-0.19628-0.19628 1.5839-2.5027 3.1047-4.0227 5.7446-5.741 14.488-7.5348 25.533-5.238 8.7949 1.8289 15.678 4.5956 32.676 13.134 12.363 6.2102 14.556 7.22 22.965 10.577 11.234 4.4846 15.83 7.0571 19.948 11.166 3.493 3.4853 4.0073 4.6632 6.1613 14.11 0.72696 3.1884 1.9046 5.8404 4.3432 9.7804 2.9169 4.7128 3.5746 6.3246 4.2998 10.537 1.508 8.7596 1.0368 18.302-1.4583 29.532-1.2486 5.6203-2.3739 9.6816-5.6135 20.259-3.5238 11.506-3.3724 11.057-3.7278 11.057-0.2457 0-0.33969-2.9726-0.45528-14.399-0.18608-18.395-0.65655-25.491-2.3615-35.614-0.95563-5.6744-3.2131-15.256-3.7119-15.755-0.0657-0.0657-1.7986 0.15779-3.8508 0.49674-17.34 2.8639-34.972-0.058-52.671-8.7285-6.5048-3.1866-8.7672-4.6409-15.459-9.9372-6.9813-5.5257-10.748-7.8966-14.581-9.1769-1.5098-0.50436-2.152-0.56809-5.7108-0.56666-4.5014 0.0018-5.7531 0.20923-11.81 1.9571-9.5985 2.7699-17.214 6.3224-23.062 10.758-9.3214 7.0698-15.632 17.546-18.578 30.838-2.2108 9.9761-2.8204 19.453-2.5791 40.102 0.14777 12.65 0.12559 14.156-0.20851 14.156-0.20562 0-0.70861-0.57412-1.1177-1.2758z" fill="#ccc" stroke-width=".24301"/>
<path d="m136.75 150.12c4.6048-5.2393 11.799-8.9989 20.113-10.511 3.4518-0.62784 11.826-0.76794 16.125-0.26977 3.1291 0.36261 9.3565 1.4913 9.6063 1.7411 0.19407 0.19407-0.51605 1.3012-1.4109 2.1997-1.8173 1.8247-4.2748 2.5137-9.0105 2.5262-9.3463 0.0246-16.986 1.1292-30.347 4.3879-3.2582 0.79467-6.0336 1.4448-6.1676 1.4448-0.13399 0 0.35708-0.68347 1.0913-1.5188z" fill="#ccc" stroke-width=".24301"/>
<path d="m256.01 150.4c-8.8748-2.2158-16.851-3.6979-22.722-4.222-0.9356-0.0835-4.1616-0.24855-7.1689-0.36671-5.981-0.235-7.2935-0.48338-9.3056-1.7611-0.99241-0.63018-2.8231-2.749-2.5648-2.9684 0.17335-0.14722 6.024-1.1098 8.8386-1.4541 16.541-2.0238 29.645 1.6821 37.165 10.51 0.60698 0.71261 1.1036 1.3414 1.1036 1.3973 0 0.17991-0.52513 0.0684-5.3463-1.1353z" stroke-width=".24301"/>
<path d="m254.45 149.92c-10.957-2.6665-17.538-3.7023-26.143-4.1149-9.1539-0.43883-10.457-0.75695-12.666-3.0924-0.98614-1.0427-1.1898-1.3834-0.91803-1.5356 0.50941-0.28509 7.8632-1.3934 11.396-1.7177 3.6974-0.3393 10.648-0.14577 13.852 0.38567 6.7617 1.1216 12.119 3.3794 16.66 7.0206 1.724 1.3825 4.2391 3.9834 4.2391 4.3837 0 0.22405-0.25109 0.17206-6.4206-1.3294z" fill="#ccc" stroke-width=".24301"/>
<path d="m135.36 307.17-50.79 14.095" fill="#ccc"/>
<path d="m72.661 325.88c-0.50251 0.87629-1.256 1.256-1.9441 1.9441" fill="#ccc"/>
<path d="m135.36 307.41c0.2146 0.63132-26.266 10.215-61.008 22.129h-5e-6c-3.5439 1.5469-7.1769 3.127-10.879 4.7309-3.6988 1.6026-7.3333 3.1714-10.883 4.6979-8.059 4.475-15.664 8.6632-22.536 12.416-9.9929 7.8726-18.287 14.301-23.786 18.434-3.6685 4.1836-5.8504 6.5078-6.0236 6.3656-0.17332-0.14238 1.6856-2.737 5.155-7.2432 5.2234-4.4891 13.36-11.273 23.359-19.476 6.8677-3.9299 14.518-8.2714 22.664-12.857 3.5759-1.5612 7.243-3.1564 10.98-4.7758 3.7396-1.6207 7.414-3.2072 11.001-4.7505h6e-6c34.889-11.756 61.742-20.301 61.957-19.67z"/>
<path d="m264.4 307.41c0.20371-0.52907 19.243 6.2831 45.932 16.353 7.5904 3.5045 15.818 7.3361 24.404 11.37-2.3e-4 -1.2e-4 0.64709 0.33613 0.64686 0.33601 6.2776 3.2615 12.35 6.4352 18.105 9.4608 10.442 6.446 19.8 12.29 27.367 17.085 4.2313 3.2116 7.8691 6.0045 10.777 8.2753 5.2881 3.7092 8.2587 5.9336 8.1255 6.1364-0.13326 0.20279-3.3548-1.642-8.8855-5.0422-3.0304-2.0843-6.7751-4.7052-11.094-7.7636-7.697-4.5257-17.119-10.148-27.554-16.451-5.7486-2.9506-11.795-6.0721-18.029-9.3105-2.3e-4 -1.2e-4 -0.64217-0.33362-0.6424-0.33374-8.5369-4.0145-16.692-7.8827-24.198-11.474-26.478-10.401-45.159-18.112-44.955-18.641z"/>
</svg>
